<svg width="100" height="20" viewBox="0 0 100 20" fill="none" xmlns="http://www.w3.org/2000/svg">
<g clip-path="url(#clip0_86_3464)">
<path fill-rule="evenodd" clip-rule="evenodd" d="M17.4166 19.0541L9.65027 9.84105L16.9339 1.69496H12.1094L1.72754 14.0767V19.0532H5.6339V13.7219L7.06572 12.1071L12.6066 19.055H17.4248L17.4166 19.0541ZM38.2412 19.0541L43.4548 1.68018H39.0657L35.8839 14.2254L32.4294 1.68018H29.3785L25.8839 14.2263L22.6621 1.68018H18.2894L23.5348 19.0393H27.6748L30.8566 7.11583L34.063 19.0393H38.2339V19.0541H38.2412ZM53.6503 19.3654C59.1912 19.3654 63.2375 15.6176 63.2375 10.3897C63.2375 5.16192 59.2066 1.39844 53.6503 1.39844C48.1248 1.39844 44.0939 5.14626 44.0939 10.3741C44.0939 15.6019 48.1248 19.3654 53.6503 19.3654ZM53.6503 16.0784C50.273 16.0784 48.1094 13.6045 48.1094 10.3758C48.1094 7.11757 50.273 4.67322 53.6503 4.67322C57.0275 4.67322 59.223 7.108 59.223 10.3758C59.223 13.6045 57.0284 16.0784 53.6503 16.0784ZM81.043 19.0558L76.9094 12.448C78.8857 12.0045 80.9248 10.3593 80.9248 7.29322C80.9248 4.06452 78.5903 1.69322 74.7766 1.69322H66.2094V19.0523H70.1157V12.8784H72.9794L76.5748 19.055H81.0421L81.043 19.0558ZM74.1948 9.62105H70.1003V4.93931H74.1939C75.7666 4.93931 76.933 5.828 76.933 7.27844C76.9484 8.74452 75.7657 9.61757 74.1939 9.61757L74.1948 9.62105ZM100 19.0541L92.2185 9.84105L99.5021 1.69496H94.6839L88.2094 9.45583V1.68018H84.303V19.0393H88.2094V13.7071L89.6412 12.0924L95.1821 19.0402H100V19.0541Z" fill="#E3E3E3"/>
<path fill-rule="evenodd" clip-rule="evenodd" d="M5.63455 5.29319L1.72727 9.81145V3.85667H0V1.60449H5.63455V5.29145V5.29319Z" fill="#FFA800"/>
</g>
<defs>
<clipPath id="clip0_86_3464">
<rect width="100" height="20" fill="white"/>
</clipPath>
</defs>
</svg>
