<svg width="210" height="705" viewBox="0 0 210 705" fill="none" xmlns="http://www.w3.org/2000/svg">
<g opacity="0.4" filter="url(#filter0_d_465_29751)">
<path d="M27.5636 682.831L17.979 697H15.6302L6.04571 682.831H9.03851L16.7289 694.265H16.8804L24.5708 682.831H27.5636Z" fill="#199C68"/>
<path d="M20.593 668.448L7.56105 668.828L4 668.904V665.865L7.56105 665.941L20.593 666.321L20.593 668.448ZM29.8366 667.385C29.8366 668.145 29.5714 668.803 29.041 669.36C28.5107 669.892 27.7909 670.158 26.8817 670.158C25.9977 670.158 25.3032 669.892 24.7981 669.36C24.2677 668.803 24.0025 668.145 24.0025 667.385C24.0025 666.625 24.2677 665.979 24.7981 665.447C25.3032 664.89 25.9977 664.612 26.8817 664.612C27.7909 664.612 28.5107 664.89 29.041 665.447C29.5714 665.979 29.8366 666.625 29.8366 667.385Z" fill="#199C68"/>
<path d="M18.0548 652.775H15.706V636.44H18.0548V652.775Z" fill="#199C68"/>
<path d="M18.0548 629.997H15.706L15.706 613.663H18.0548L18.0548 629.997Z" fill="#199C68"/>
<path d="M29.382 582.619H4.53037L4.53037 567.31H7.18222L7.18222 579.428H15.5924V569.171H18.2442V579.428H29.382V582.619Z" fill="#199C68"/>
<path d="M29.8366 553.497C29.8366 555.118 29.4577 556.625 28.7001 558.018C27.9424 559.385 26.8438 560.5 25.4042 561.361C23.9646 562.196 22.2346 562.614 20.2142 562.614C18.1432 562.614 16.3879 562.196 14.9483 561.361C13.5088 560.5 12.4101 559.385 11.6525 558.018C10.8948 556.625 10.516 555.118 10.516 553.497C10.516 551.877 10.8948 550.382 11.6525 549.015C12.4101 547.622 13.5088 546.508 14.9483 545.672C16.3879 544.811 18.1432 544.38 20.2142 544.38C22.2346 544.38 23.9646 544.811 25.4042 545.672C26.8438 546.508 27.9424 547.622 28.7001 549.015C29.4577 550.382 29.8366 551.877 29.8366 553.497ZM27.2605 553.497C27.2605 552.307 26.9701 551.269 26.3892 550.382C25.783 549.496 24.9496 548.812 23.8889 548.331C22.8281 547.85 21.6032 547.609 20.2142 547.609C18.7998 547.609 17.5623 547.85 16.5016 548.331C15.4156 548.812 14.5821 549.496 14.0013 550.382C13.3951 551.269 13.0921 552.307 13.0921 553.497C13.0921 554.688 13.3951 555.726 14.0013 556.612C14.5821 557.473 15.4156 558.157 16.5016 558.664C17.5623 559.145 18.7998 559.385 20.2142 559.385C21.6032 559.385 22.8281 559.145 23.8889 558.664C24.9496 558.157 25.783 557.473 26.3892 556.612C26.9701 555.726 27.2605 554.688 27.2605 553.497Z" fill="#199C68"/>
<path d="M29.8366 530.72C29.8366 532.341 29.4577 533.848 28.7001 535.24C27.9424 536.608 26.8438 537.722 25.4042 538.583C23.9646 539.419 22.2346 539.837 20.2142 539.837C18.1432 539.837 16.3879 539.419 14.9483 538.583C13.5088 537.722 12.4101 536.608 11.6525 535.24C10.8948 533.848 10.516 532.341 10.516 530.72C10.516 529.099 10.8948 527.605 11.6525 526.237C12.4101 524.845 13.5088 523.73 14.9483 522.895C16.3879 522.033 18.1432 521.603 20.2142 521.603C22.2346 521.603 23.9646 522.033 25.4042 522.895C26.8438 523.73 27.9424 524.845 28.7001 526.237C29.4577 527.605 29.8366 529.099 29.8366 530.72ZM27.2605 530.72C27.2605 529.53 26.9701 528.491 26.3892 527.605C25.783 526.719 24.9496 526.035 23.8889 525.554C22.8281 525.072 21.6032 524.832 20.2142 524.832C18.7998 524.832 17.5623 525.072 16.5016 525.554C15.4156 526.035 14.5821 526.719 14.0013 527.605C13.3951 528.491 13.0921 529.53 13.0921 530.72C13.0921 531.91 13.3951 532.948 14.0013 533.835C14.5821 534.696 15.4156 535.38 16.5016 535.886C17.5623 536.367 18.7998 536.608 20.2142 536.608C21.6032 536.608 22.8281 536.367 23.8889 535.886C24.9496 535.38 25.783 534.696 26.3892 533.835C26.9701 532.948 27.2605 531.91 27.2605 530.72Z" fill="#199C68"/>
<path d="M29.8366 504.372C29.8366 506.17 29.5209 507.588 28.8895 508.626C28.2328 509.664 27.3363 510.412 26.1998 510.867C25.0632 511.298 23.7373 511.513 22.222 511.513H13.5088V516.717H11.16L10.9706 511.399L5.06074 510.981V508.398H10.9706L10.9706 499.319H13.5088V508.398H22.2599C23.3459 508.398 24.2677 508.259 25.0254 507.98C25.783 507.702 26.3513 507.221 26.7301 506.537C27.109 505.853 27.2984 504.916 27.2984 503.726C27.2984 502.839 27.2226 502.042 27.0711 501.333C26.9195 500.624 26.7175 499.94 26.4649 499.281L28.738 498.598C29.041 499.433 29.2936 500.32 29.4956 501.257C29.7229 502.168 29.8366 503.207 29.8366 504.372Z" fill="#199C68"/>
<path d="M29.8366 484.025C29.8366 485.874 29.4577 487.558 28.7001 489.078C27.9424 490.572 26.8438 491.762 25.4042 492.648C23.9394 493.535 22.1841 493.978 20.1384 493.978C18.1432 493.978 16.4258 493.535 14.9862 492.648C13.5467 491.762 12.448 490.61 11.6904 489.192C10.9074 487.748 10.516 486.203 10.516 484.557C10.516 482.784 10.8822 481.278 11.6146 480.037C12.3218 478.77 13.3194 477.808 14.6074 477.15C15.8954 476.466 17.4108 476.124 19.1534 476.124C19.507 476.124 19.8479 476.137 20.1763 476.162C20.5046 476.187 20.795 476.225 21.0476 476.276V491.889H18.623V478.137L19.4944 478.935C17.3224 478.935 15.6934 479.442 14.6074 480.454C13.5214 481.442 12.9784 482.784 12.9784 484.481C12.9784 485.621 13.2562 486.684 13.8118 487.672C14.3675 488.634 15.1756 489.407 16.2364 489.989C17.2971 490.572 18.5978 490.863 20.1384 490.863C21.7295 490.863 23.0554 490.546 24.1162 489.913C25.1769 489.28 25.9851 488.419 26.5407 487.33C27.0711 486.241 27.3363 485.013 27.3363 483.645C27.3363 482.531 27.1847 481.531 26.8817 480.644C26.5533 479.733 26.124 478.859 25.5936 478.023L27.6393 476.884C28.2455 477.795 28.7632 478.846 29.1926 480.037C29.6219 481.202 29.8366 482.531 29.8366 484.025Z" fill="#199C68"/>
<path d="M29.382 468.237H10.9706V465.654L15.3272 465.388V465.274C13.8371 464.312 12.6627 463.122 11.804 461.704C10.9453 460.285 10.516 458.728 10.516 457.031C10.516 456.347 10.5791 455.714 10.7054 455.132C10.8064 454.524 10.9958 453.942 11.2736 453.384L13.9634 454.106C13.7361 454.739 13.5719 455.284 13.4709 455.74C13.3699 456.196 13.3194 456.791 13.3194 457.525C13.3194 458.918 13.7234 460.26 14.5316 461.552C15.3146 462.818 16.6657 464.008 18.5852 465.123H29.382V468.237Z" fill="#199C68"/>
<path d="M18.0548 425H15.706L15.706 408.665H18.0548L18.0548 425Z" fill="#199C68"/>
<path d="M18.0548 402.222H15.706L15.706 385.888H18.0548L18.0548 402.222Z" fill="#199C68"/>
<path d="M27.5636 378.609H24.5708L16.8804 367.175H16.7289L9.03851 378.609H6.04571L15.6302 364.44H17.979L27.5636 378.609Z" fill="#199C68"/>
<path d="M84.4158 682.831L74.8312 697H72.4825L62.8979 682.831H65.8907L73.5811 694.265H73.7326L81.423 682.831H84.4158Z" fill="#199C68"/>
<path d="M86.2342 669.588H66.2696C64.7795 669.588 63.4788 669.322 62.3676 668.79C61.231 668.233 60.3597 667.41 59.7536 666.321C59.1222 665.232 58.8065 663.839 58.8065 662.143C58.8065 661.231 58.8949 660.345 59.0717 659.483C59.2232 658.597 59.4884 657.711 59.8672 656.824L62.216 657.546C61.8624 658.306 61.6351 659.015 61.5341 659.673C61.4078 660.307 61.3447 661.028 61.3447 661.839C61.3447 663.485 61.774 664.675 62.6327 665.409C63.4914 666.144 64.6658 666.511 66.1559 666.511H86.2342V669.588ZM70.361 674.868H68.0122L67.8228 669.474V658.762H70.361V674.868Z" fill="#199C68"/>
<path d="M86.6888 644.607C86.6888 646.228 86.31 647.735 85.5523 649.128C84.7946 650.495 83.696 651.61 82.2564 652.471C80.8168 653.306 79.0868 653.724 77.0664 653.724C74.9954 653.724 73.2401 653.306 71.8006 652.471C70.361 651.61 69.2624 650.495 68.5047 649.128C67.747 647.735 67.3682 646.228 67.3682 644.607C67.3682 642.987 67.747 641.492 68.5047 640.125C69.2624 638.732 70.361 637.618 71.8006 636.782C73.2401 635.921 74.9954 635.49 77.0664 635.49C79.0868 635.49 80.8168 635.921 82.2564 636.782C83.696 637.618 84.7946 638.732 85.5523 640.125C86.31 641.492 86.6888 642.987 86.6888 644.607ZM84.1127 644.607C84.1127 643.417 83.8223 642.379 83.2414 641.492C82.6353 640.606 81.8018 639.922 80.7411 639.441C79.6803 638.96 78.4554 638.719 77.0664 638.719C75.6521 638.719 74.4145 638.96 73.3538 639.441C72.2678 639.922 71.4343 640.606 70.8535 641.492C70.2473 642.379 69.9443 643.417 69.9443 644.607C69.9443 645.798 70.2473 646.836 70.8535 647.722C71.4343 648.583 72.2678 649.267 73.3538 649.774C74.4145 650.255 75.6521 650.495 77.0664 650.495C78.4554 650.495 79.6803 650.255 80.7411 649.774C81.8018 649.267 82.6353 648.583 83.2414 647.722C83.8223 646.836 84.1127 645.798 84.1127 644.607Z" fill="#199C68"/>
<path d="M86.6888 621.83C86.6888 623.451 86.31 624.957 85.5523 626.35C84.7946 627.718 83.696 628.832 82.2564 629.693C80.8168 630.529 79.0868 630.947 77.0664 630.947C74.9954 630.947 73.2401 630.529 71.8006 629.693C70.361 628.832 69.2624 627.718 68.5047 626.35C67.747 624.957 67.3682 623.451 67.3682 621.83C67.3682 620.209 67.747 618.715 68.5047 617.347C69.2624 615.954 70.361 614.84 71.8006 614.004C73.2401 613.143 74.9954 612.713 77.0664 612.713C79.0868 612.713 80.8168 613.143 82.2564 614.004C83.696 614.84 84.7946 615.954 85.5523 617.347C86.31 618.715 86.6888 620.209 86.6888 621.83ZM84.1127 621.83C84.1127 620.64 83.8223 619.601 83.2414 618.715C82.6353 617.829 81.8018 617.145 80.7411 616.664C79.6803 616.182 78.4554 615.942 77.0664 615.942C75.6521 615.942 74.4145 616.182 73.3538 616.664C72.2678 617.145 71.4343 617.829 70.8535 618.715C70.2473 619.601 69.9443 620.64 69.9443 621.83C69.9443 623.02 70.2473 624.058 70.8535 624.945C71.4343 625.806 72.2678 626.49 73.3538 626.996C74.4145 627.477 75.6521 627.718 77.0664 627.718C78.4554 627.718 79.6803 627.477 80.7411 626.996C81.8018 626.49 82.6353 625.806 83.2414 624.945C83.8223 624.058 84.1127 623.02 84.1127 621.83Z" fill="#199C68"/>
<path d="M86.6888 595.482C86.6888 597.28 86.3731 598.698 85.7417 599.736C85.0851 600.774 84.1885 601.522 83.052 601.977C81.9155 602.408 80.5895 602.623 79.0742 602.623H70.361V607.827H68.0122L67.8228 602.509L61.913 602.091V599.508H67.8228V590.429H70.361V599.508H79.1121C80.1981 599.508 81.1199 599.369 81.8776 599.09C82.6353 598.812 83.2035 598.331 83.5823 597.647C83.9612 596.963 84.1506 596.026 84.1506 594.836C84.1506 593.949 84.0748 593.152 83.9233 592.443C83.7718 591.733 83.5697 591.05 83.3172 590.391L85.5902 589.708C85.8932 590.543 86.1458 591.43 86.3478 592.367C86.5751 593.278 86.6888 594.317 86.6888 595.482Z" fill="#199C68"/>
<path d="M86.6888 575.135C86.6888 576.984 86.31 578.668 85.5523 580.188C84.7946 581.682 83.696 582.872 82.2564 583.758C80.7916 584.645 79.0363 585.088 76.9906 585.088C74.9954 585.088 73.278 584.645 71.8384 583.758C70.3989 582.872 69.3002 581.72 68.5426 580.302C67.7596 578.858 67.3682 577.313 67.3682 575.667C67.3682 573.894 67.7344 572.387 68.4668 571.147C69.174 569.88 70.1716 568.918 71.4596 568.26C72.7477 567.576 74.263 567.234 76.0056 567.234C76.3592 567.234 76.7002 567.247 77.0285 567.272C77.3568 567.297 77.6473 567.335 77.8998 567.386L77.8998 582.999H75.4753L75.4753 569.247L76.3466 570.045C74.1746 570.045 72.5456 570.551 71.4596 571.564C70.3736 572.552 69.8306 573.894 69.8306 575.591C69.8306 576.731 70.1084 577.794 70.6641 578.782C71.2197 579.744 72.0279 580.517 73.0886 581.099C74.1493 581.682 75.45 581.973 76.9906 581.973C78.5817 581.973 79.9076 581.656 80.9684 581.023C82.0291 580.39 82.8373 579.529 83.3929 578.44C83.9233 577.351 84.1885 576.123 84.1885 574.755C84.1885 573.641 84.0369 572.641 83.7339 571.754C83.4055 570.843 82.9762 569.969 82.4458 569.133L84.4915 567.994C85.0977 568.905 85.6154 569.956 86.0448 571.147C86.4741 572.312 86.6888 573.641 86.6888 575.135Z" fill="#199C68"/>
<path d="M86.2342 559.347H67.8228V556.764L72.1794 556.498V556.384C70.6893 555.422 69.5149 554.232 68.6562 552.814C67.7975 551.395 67.3682 549.838 67.3682 548.141C67.3682 547.457 67.4313 546.824 67.5576 546.242C67.6586 545.634 67.848 545.052 68.1259 544.494L70.8156 545.216C70.5883 545.849 70.4241 546.394 70.3231 546.85C70.2221 547.305 70.1716 547.901 70.1716 548.635C70.1716 550.028 70.5757 551.37 71.3838 552.662C72.1668 553.928 73.5179 555.118 75.4374 556.232H86.2342V559.347Z" fill="#199C68"/>
<path d="M84.4158 538.051H81.423L73.7326 526.617H73.5811L65.8907 538.051H62.8979L72.4825 523.882H74.8312L84.4158 538.051Z" fill="#199C68"/>
<path d="M141.268 682.831L131.683 697H129.335L119.75 682.831H122.743L130.433 694.265H130.585L138.275 682.831H141.268Z" fill="#199C68"/>
<path d="M143.541 668.486C143.541 670.892 142.708 672.83 141.041 674.298C139.349 675.767 136.975 676.502 133.919 676.502C131.923 676.502 130.206 676.109 128.766 675.324C127.302 674.514 126.178 673.475 125.395 672.209C124.612 670.918 124.22 669.55 124.22 668.107C124.22 667.018 124.435 666.03 124.864 665.144C125.269 664.232 125.849 663.383 126.607 662.598V662.484L123.198 662.636H116.113V659.521H143.086V662.105L140.662 662.371V662.484C141.445 663.219 142.127 664.118 142.708 665.182C143.263 666.22 143.541 667.322 143.541 668.486ZM140.927 667.841C140.927 666.929 140.7 666.043 140.245 665.182C139.765 664.321 139.071 663.472 138.162 662.636H128.994C128.211 663.472 127.655 664.295 127.327 665.106C126.999 665.891 126.834 666.688 126.834 667.499C126.834 668.562 127.137 669.537 127.744 670.424C128.324 671.285 129.145 671.981 130.206 672.513C131.241 673.02 132.466 673.273 133.881 673.273C136.078 673.273 137.808 672.792 139.071 671.829C140.308 670.867 140.927 669.537 140.927 667.841Z" fill="#199C68"/>
<path d="M143.086 644H127.213V652.585H124.675V640.885H143.086V644ZM120.811 642.784C120.811 643.493 120.596 644.088 120.167 644.569C119.712 645.051 119.119 645.291 118.386 645.291C117.654 645.291 117.073 645.051 116.644 644.569C116.189 644.088 115.962 643.493 115.962 642.784C115.962 642.075 116.189 641.48 116.644 640.999C117.073 640.517 117.654 640.277 118.386 640.277C119.119 640.277 119.712 640.517 120.167 640.999C120.596 641.48 120.811 642.075 120.811 642.784Z" fill="#199C68"/>
<path d="M143.086 623.501L124.675 631.289V628.136L135.131 623.881C136.04 623.501 136.949 623.147 137.858 622.818C138.768 622.463 139.664 622.121 140.548 621.792V621.64C139.664 621.311 138.768 620.981 137.858 620.652C136.949 620.323 136.04 619.981 135.131 619.627L124.675 615.372V612.371L143.086 620.006V623.501Z" fill="#199C68"/>
<path d="M143.541 574.527C143.541 576.452 143.162 578.187 142.404 579.732C141.647 581.251 140.548 582.454 139.109 583.34C137.669 584.202 135.939 584.632 133.919 584.632C131.848 584.632 130.092 584.164 128.653 583.227C127.213 582.29 126.115 581.049 125.357 579.504C124.599 577.934 124.22 576.212 124.22 574.338C124.22 572.818 124.486 571.514 125.016 570.425C125.546 569.311 126.178 568.374 126.91 567.614L128.918 569.171C128.261 569.931 127.744 570.716 127.365 571.526C126.986 572.337 126.796 573.236 126.796 574.224C126.796 575.642 127.1 576.895 127.706 577.984C128.287 579.073 129.12 579.922 130.206 580.529C131.267 581.112 132.504 581.403 133.919 581.403C135.308 581.403 136.533 581.112 137.593 580.529C138.654 579.947 139.487 579.124 140.094 578.06C140.674 576.971 140.965 575.718 140.965 574.3C140.965 573.16 140.738 572.122 140.283 571.185C139.828 570.222 139.285 569.361 138.654 568.601L140.662 567.196C141.571 568.209 142.278 569.349 142.783 570.615C143.288 571.856 143.541 573.16 143.541 574.527Z" fill="#199C68"/>
<path d="M143.541 549.471C143.541 551.421 142.985 552.915 141.874 553.953C140.738 554.992 139.083 555.511 136.911 555.511H118.652V561.817H116.113V552.396H137.139C138.477 552.396 139.45 552.067 140.056 551.408C140.662 550.75 140.965 549.876 140.965 548.787C140.965 548.255 140.902 547.711 140.776 547.154C140.624 546.596 140.397 545.976 140.094 545.292L142.442 544.494C142.745 545.33 142.998 546.115 143.2 546.85C143.427 547.584 143.541 548.458 143.541 549.471Z" fill="#199C68"/>
<path d="M143.541 532.771C143.541 533.911 143.339 534.962 142.935 535.924C142.506 536.886 141.899 537.646 141.116 538.203C140.334 538.761 139.399 539.039 138.313 539.039C136.242 539.039 134.676 538.001 133.616 535.924C132.53 533.848 131.797 530.429 131.418 525.668C130.585 525.693 129.815 525.87 129.107 526.199C128.4 526.503 127.845 527.01 127.44 527.719C127.011 528.428 126.796 529.378 126.796 530.568C126.796 531.353 126.91 532.138 127.137 532.923C127.339 533.683 127.617 534.417 127.971 535.126C128.299 535.81 128.64 536.443 128.994 537.026L126.872 538.241C126.468 537.634 126.064 536.899 125.66 536.038C125.231 535.152 124.89 534.202 124.637 533.189C124.359 532.176 124.22 531.125 124.22 530.036C124.22 528.339 124.536 526.946 125.167 525.858C125.799 524.743 126.683 523.92 127.819 523.388C128.931 522.831 130.257 522.553 131.797 522.553H143.086V525.098L140.586 525.364V525.478C141.394 526.491 142.089 527.63 142.67 528.896C143.251 530.163 143.541 531.454 143.541 532.771ZM141.041 531.935C141.041 530.872 140.801 529.821 140.321 528.783C139.841 527.744 139.172 526.706 138.313 525.668H133.464C133.691 528.301 134.007 530.378 134.411 531.897C134.815 533.392 135.333 534.455 135.964 535.088C136.57 535.696 137.278 536 138.086 536C138.768 536 139.336 535.81 139.791 535.43C140.22 535.05 140.536 534.557 140.738 533.949C140.94 533.316 141.041 532.645 141.041 531.935Z" fill="#199C68"/>
<path d="M143.541 507.563C143.541 509.361 143.251 511.045 142.67 512.615C142.089 514.185 141.42 515.527 140.662 516.641L138.616 515.198C139.374 514.134 139.98 512.957 140.435 511.665C140.889 510.374 141.116 508.879 141.116 507.183C141.116 505.613 140.826 504.448 140.245 503.688C139.664 502.903 138.995 502.51 138.237 502.51C137.884 502.51 137.555 502.586 137.252 502.738C136.949 502.865 136.659 503.131 136.381 503.536C136.103 503.916 135.838 504.486 135.585 505.245C135.333 506.005 135.08 507.018 134.828 508.284C134.323 510.69 133.641 512.501 132.782 513.716C131.923 514.907 130.812 515.502 129.448 515.502C127.958 515.502 126.721 514.856 125.736 513.564C124.726 512.273 124.22 510.361 124.22 507.828C124.22 506.41 124.46 505.043 124.94 503.726C125.395 502.409 125.938 501.295 126.569 500.383L128.577 501.902C127.971 502.738 127.504 503.688 127.175 504.751C126.822 505.815 126.645 506.929 126.645 508.094C126.645 509.158 126.771 510.006 127.024 510.639C127.251 511.247 127.567 511.69 127.971 511.969C128.375 512.222 128.817 512.349 129.297 512.349C130.08 512.349 130.698 511.931 131.153 511.095C131.582 510.234 131.987 508.867 132.365 506.993C132.795 504.941 133.275 503.371 133.805 502.282C134.335 501.168 134.941 500.408 135.623 500.003C136.305 499.573 137.113 499.357 138.048 499.357C139.058 499.357 139.98 499.674 140.813 500.307C141.622 500.94 142.278 501.864 142.783 503.08C143.288 504.296 143.541 505.79 143.541 507.563Z" fill="#199C68"/>
<path d="M143.541 484.785C143.541 486.583 143.251 488.267 142.67 489.837C142.089 491.407 141.42 492.75 140.662 493.864L138.616 492.42C139.374 491.357 139.98 490.179 140.435 488.888C140.889 487.596 141.116 486.102 141.116 484.405C141.116 482.835 140.826 481.67 140.245 480.91C139.664 480.125 138.995 479.733 138.237 479.733C137.884 479.733 137.555 479.809 137.252 479.961C136.949 480.087 136.659 480.353 136.381 480.758C136.103 481.138 135.838 481.708 135.585 482.468C135.333 483.228 135.08 484.241 134.828 485.507C134.323 487.913 133.641 489.723 132.782 490.939C131.923 492.129 130.812 492.724 129.448 492.724C127.958 492.724 126.721 492.079 125.736 490.787C124.726 489.495 124.22 487.583 124.22 485.051C124.22 483.633 124.46 482.265 124.94 480.948C125.395 479.631 125.938 478.517 126.569 477.605L128.577 479.125C127.971 479.961 127.504 480.91 127.175 481.974C126.822 483.038 126.645 484.152 126.645 485.317C126.645 486.381 126.771 487.229 127.024 487.862C127.251 488.47 127.567 488.913 127.971 489.192C128.375 489.445 128.817 489.571 129.297 489.571C130.08 489.571 130.698 489.154 131.153 488.318C131.582 487.457 131.987 486.089 132.365 484.215C132.795 482.164 133.275 480.594 133.805 479.505C134.335 478.391 134.941 477.631 135.623 477.226C136.305 476.795 137.113 476.58 138.048 476.58C139.058 476.58 139.98 476.896 140.813 477.529C141.622 478.163 142.278 479.087 142.783 480.303C143.288 481.518 143.541 483.012 143.541 484.785Z" fill="#199C68"/>
<path d="M127.706 470.555H125.357V454.22H127.706V470.555ZM135.813 470.555H133.464L133.464 454.22H135.813L135.813 470.555Z" fill="#199C68"/>
<path d="M129.751 445.042L121.228 445.992L117.06 446.068V441.889L121.228 441.965L129.751 442.915V445.042ZM129.751 436.305L121.228 437.255L117.06 437.331V433.152L121.228 433.228L129.751 434.178V436.305Z" fill="#199C68"/>
<path d="M150.853 424.696H124.675V422.113L127.024 421.847V421.733C126.216 420.872 125.546 419.884 125.016 418.77C124.486 417.63 124.22 416.491 124.22 415.351C124.22 413.68 124.612 412.287 125.395 411.172C126.152 410.033 127.238 409.172 128.653 408.589C130.042 408.007 131.696 407.716 133.616 407.716C135.686 407.716 137.467 408.108 138.957 408.893C140.447 409.678 141.584 410.704 142.367 411.97C143.15 413.236 143.541 414.617 143.541 416.111C143.541 416.946 143.339 417.871 142.935 418.884C142.506 419.871 141.912 420.783 141.154 421.619V421.733L144.64 421.581H150.853V424.696ZM140.927 416.643C140.927 415.554 140.637 414.579 140.056 413.717C139.475 412.856 138.641 412.185 137.555 411.704C136.444 411.198 135.131 410.944 133.616 410.944C132.277 410.944 131.103 411.122 130.092 411.476C129.057 411.831 128.261 412.388 127.706 413.148C127.125 413.907 126.834 414.908 126.834 416.149C126.834 416.984 127.062 417.871 127.516 418.808C127.946 419.719 128.64 420.644 129.6 421.581H138.768C139.551 420.694 140.106 419.808 140.435 418.922C140.763 418.01 140.927 417.25 140.927 416.643Z" fill="#199C68"/>
<path d="M143.541 396.106C143.541 397.246 143.339 398.297 142.935 399.259C142.506 400.222 141.899 400.981 141.116 401.538C140.334 402.096 139.399 402.374 138.313 402.374C136.242 402.374 134.676 401.336 133.616 399.259C132.53 397.183 131.797 393.764 131.418 389.003C130.585 389.028 129.815 389.205 129.107 389.534C128.4 389.838 127.845 390.345 127.44 391.054C127.011 391.763 126.796 392.713 126.796 393.903C126.796 394.688 126.91 395.473 127.137 396.258C127.339 397.018 127.617 397.752 127.971 398.461C128.299 399.145 128.64 399.778 128.994 400.361L126.872 401.576C126.468 400.969 126.064 400.234 125.66 399.373C125.231 398.487 124.89 397.537 124.637 396.524C124.359 395.511 124.22 394.46 124.22 393.371C124.22 391.674 124.536 390.282 125.167 389.193C125.799 388.078 126.683 387.255 127.819 386.723C128.931 386.166 130.257 385.888 131.797 385.888H143.086V388.433L140.586 388.699V388.813C141.394 389.826 142.089 390.965 142.67 392.232C143.251 393.498 143.541 394.789 143.541 396.106ZM141.041 395.271C141.041 394.207 140.801 393.156 140.321 392.118C139.841 391.079 139.172 390.041 138.313 389.003H133.464C133.691 391.636 134.007 393.713 134.411 395.233C134.815 396.727 135.333 397.79 135.964 398.423C136.57 399.031 137.278 399.335 138.086 399.335C138.768 399.335 139.336 399.145 139.791 398.765C140.22 398.385 140.536 397.892 140.738 397.284C140.94 396.651 141.041 395.98 141.041 395.271Z" fill="#199C68"/>
<path d="M151.572 371.429C151.572 373.227 151.37 374.76 150.966 376.026C150.562 377.292 149.981 378.267 149.224 378.951C148.466 379.609 147.544 379.939 146.458 379.939C145.726 379.939 144.993 379.685 144.261 379.179C143.554 378.647 142.922 377.887 142.367 376.9H142.215C141.937 377.381 141.558 377.824 141.079 378.229C140.599 378.609 139.967 378.799 139.184 378.799C138.604 378.799 138.01 378.609 137.404 378.229C136.772 377.849 136.217 377.305 135.737 376.596H135.585C135.106 377.229 134.462 377.773 133.653 378.229C132.845 378.66 131.898 378.875 130.812 378.875C129.474 378.875 128.312 378.546 127.327 377.887C126.342 377.203 125.584 376.317 125.054 375.228C124.498 374.114 124.22 372.911 124.22 371.619C124.22 370.581 124.372 369.669 124.675 368.884V361.249H127.213V366.035C127.643 365.605 128.186 365.237 128.842 364.934C129.499 364.63 130.193 364.478 130.926 364.478C132.239 364.478 133.376 364.794 134.335 365.427C135.27 366.061 135.99 366.922 136.495 368.011C137 369.074 137.252 370.277 137.252 371.619C137.252 372.101 137.202 372.62 137.101 373.177C136.975 373.709 136.798 374.228 136.57 374.734C136.848 375.19 137.164 375.545 137.518 375.798C137.871 376.051 138.263 376.178 138.692 376.178C139.399 376.178 139.929 375.849 140.283 375.19C140.637 374.506 140.813 373.557 140.813 372.341V368.201C140.813 365.82 141.142 364.06 141.798 362.92C142.455 361.755 143.566 361.173 145.132 361.173C146.269 361.173 147.329 361.591 148.314 362.426C149.299 363.262 150.082 364.452 150.663 365.997C151.269 367.517 151.572 369.327 151.572 371.429ZM135.169 371.619C135.169 370.834 134.992 370.125 134.638 369.492C134.285 368.834 133.78 368.314 133.123 367.935C132.466 367.555 131.696 367.365 130.812 367.365C129.953 367.365 129.208 367.555 128.577 367.935C127.92 368.314 127.415 368.834 127.062 369.492C126.683 370.125 126.493 370.834 126.493 371.619C126.493 372.379 126.683 373.088 127.062 373.747C127.415 374.38 127.92 374.899 128.577 375.304C129.208 375.684 129.953 375.874 130.812 375.874C131.696 375.874 132.466 375.684 133.123 375.304C133.78 374.899 134.285 374.38 134.638 373.747C134.992 373.088 135.169 372.379 135.169 371.619ZM149.299 371.201C149.299 369.758 149.123 368.517 148.769 367.479C148.415 366.44 147.961 365.643 147.405 365.086C146.85 364.528 146.256 364.25 145.625 364.25C144.741 364.25 144.147 364.604 143.844 365.313C143.541 365.997 143.389 367.048 143.389 368.466V372.075C143.389 372.607 143.364 373.114 143.314 373.595C143.263 374.051 143.187 374.481 143.086 374.886C143.566 375.747 144.059 376.355 144.564 376.71C145.094 377.064 145.625 377.241 146.155 377.241C147.115 377.241 147.872 376.735 148.428 375.722C149.009 374.684 149.299 373.177 149.299 371.201Z" fill="#199C68"/>
<path d="M143.541 347.36C143.541 349.209 143.162 350.893 142.404 352.413C141.647 353.907 140.548 355.097 139.109 355.983C137.644 356.87 135.889 357.313 133.843 357.313C131.848 357.313 130.13 356.87 128.691 355.983C127.251 355.097 126.152 353.945 125.395 352.527C124.612 351.083 124.22 349.538 124.22 347.892C124.22 346.119 124.587 344.613 125.319 343.372C126.026 342.105 127.024 341.143 128.312 340.485C129.6 339.801 131.115 339.459 132.858 339.459C133.211 339.459 133.552 339.472 133.881 339.497C134.209 339.522 134.499 339.56 134.752 339.611V355.224H132.327V341.472L133.199 342.27C131.027 342.27 129.398 342.777 128.312 343.79C127.226 344.777 126.683 346.119 126.683 347.816C126.683 348.956 126.961 350.019 127.516 351.007C128.072 351.969 128.88 352.742 129.941 353.324C131.002 353.907 132.302 354.198 133.843 354.198C135.434 354.198 136.76 353.882 137.821 353.248C138.881 352.615 139.69 351.754 140.245 350.665C140.776 349.576 141.041 348.348 141.041 346.98C141.041 345.866 140.889 344.866 140.586 343.98C140.258 343.068 139.828 342.194 139.298 341.358L141.344 340.219C141.95 341.13 142.468 342.181 142.897 343.372C143.326 344.537 143.541 345.866 143.541 347.36Z" fill="#199C68"/>
<path d="M131.759 333.89H129.41V317.555H131.759V333.89Z" fill="#199C68"/>
<path d="M143.086 305.148H123.122C121.632 305.148 120.331 304.882 119.22 304.351C118.083 303.793 117.212 302.97 116.606 301.881C115.974 300.792 115.659 299.4 115.659 297.703C115.659 296.791 115.747 295.905 115.924 295.044C116.075 294.157 116.341 293.271 116.719 292.385L119.068 293.106C118.715 293.866 118.487 294.575 118.386 295.234C118.26 295.867 118.197 296.588 118.197 297.399C118.197 299.045 118.626 300.235 119.485 300.97C120.344 301.704 121.518 302.071 123.008 302.071H143.086V305.148ZM127.213 310.428H124.864L124.675 305.034V294.322H127.213V310.428Z" fill="#199C68"/>
<path d="M143.541 280.168C143.541 281.788 143.162 283.295 142.404 284.688C141.647 286.056 140.548 287.17 139.109 288.031C137.669 288.867 135.939 289.284 133.919 289.284C131.848 289.284 130.092 288.867 128.653 288.031C127.213 287.17 126.115 286.056 125.357 284.688C124.599 283.295 124.22 281.788 124.22 280.168C124.22 278.547 124.599 277.053 125.357 275.685C126.115 274.292 127.213 273.178 128.653 272.342C130.092 271.481 131.848 271.051 133.919 271.051C135.939 271.051 137.669 271.481 139.109 272.342C140.548 273.178 141.647 274.292 142.404 275.685C143.162 277.053 143.541 278.547 143.541 280.168ZM140.965 280.168C140.965 278.977 140.674 277.939 140.094 277.053C139.487 276.166 138.654 275.482 137.593 275.001C136.533 274.52 135.308 274.28 133.919 274.28C132.504 274.28 131.267 274.52 130.206 275.001C129.12 275.482 128.287 276.166 127.706 277.053C127.1 277.939 126.796 278.977 126.796 280.168C126.796 281.358 127.1 282.396 127.706 283.282C128.287 284.144 129.12 284.827 130.206 285.334C131.267 285.815 132.504 286.056 133.919 286.056C135.308 286.056 136.533 285.815 137.593 285.334C138.654 284.827 139.487 284.144 140.094 283.282C140.674 282.396 140.965 281.358 140.965 280.168Z" fill="#199C68"/>
<path d="M143.541 257.39C143.541 259.011 143.162 260.518 142.404 261.91C141.647 263.278 140.548 264.392 139.109 265.253C137.669 266.089 135.939 266.507 133.919 266.507C131.848 266.507 130.092 266.089 128.653 265.253C127.213 264.392 126.115 263.278 125.357 261.91C124.599 260.518 124.22 259.011 124.22 257.39C124.22 255.769 124.599 254.275 125.357 252.908C126.115 251.515 127.213 250.4 128.653 249.565C130.092 248.704 131.848 248.273 133.919 248.273C135.939 248.273 137.669 248.704 139.109 249.565C140.548 250.4 141.647 251.515 142.404 252.908C143.162 254.275 143.541 255.769 143.541 257.39ZM140.965 257.39C140.965 256.2 140.674 255.161 140.094 254.275C139.487 253.389 138.654 252.705 137.593 252.224C136.533 251.743 135.308 251.502 133.919 251.502C132.504 251.502 131.267 251.743 130.206 252.224C129.12 252.705 128.287 253.389 127.706 254.275C127.1 255.161 126.796 256.2 126.796 257.39C126.796 258.58 127.1 259.619 127.706 260.505C128.287 261.366 129.12 262.05 130.206 262.556C131.267 263.037 132.504 263.278 133.919 263.278C135.308 263.278 136.533 263.037 137.593 262.556C138.654 262.05 139.487 261.366 140.094 260.505C140.674 259.619 140.965 258.58 140.965 257.39Z" fill="#199C68"/>
<path d="M143.541 231.042C143.541 232.84 143.225 234.258 142.594 235.296C141.937 236.335 141.041 237.082 139.904 237.538C138.768 237.968 137.442 238.183 135.926 238.183H127.213V243.388H124.864L124.675 238.069L118.765 237.652V235.068H124.675V225.989H127.213V235.068H135.964C137.05 235.068 137.972 234.929 138.73 234.651C139.487 234.372 140.056 233.891 140.435 233.207C140.813 232.523 141.003 231.586 141.003 230.396C141.003 229.51 140.927 228.712 140.776 228.003C140.624 227.294 140.422 226.61 140.169 225.951L142.442 225.268C142.745 226.103 142.998 226.99 143.2 227.927C143.427 228.838 143.541 229.877 143.541 231.042Z" fill="#199C68"/>
<path d="M143.541 210.695C143.541 212.544 143.162 214.228 142.404 215.748C141.647 217.242 140.548 218.432 139.109 219.319C137.644 220.205 135.889 220.648 133.843 220.648C131.848 220.648 130.13 220.205 128.691 219.319C127.251 218.432 126.152 217.28 125.395 215.862C124.612 214.418 124.22 212.873 124.22 211.227C124.22 209.455 124.587 207.948 125.319 206.707C126.026 205.441 127.024 204.478 128.312 203.82C129.6 203.136 131.115 202.794 132.858 202.794C133.211 202.794 133.552 202.807 133.881 202.832C134.209 202.857 134.499 202.895 134.752 202.946V218.559H132.327V204.807L133.199 205.605C131.027 205.605 129.398 206.112 128.312 207.125C127.226 208.112 126.683 209.455 126.683 211.151C126.683 212.291 126.961 213.355 127.516 214.342C128.072 215.305 128.88 216.077 129.941 216.659C131.002 217.242 132.302 217.533 133.843 217.533C135.434 217.533 136.76 217.217 137.821 216.583C138.881 215.95 139.69 215.089 140.245 214C140.776 212.911 141.041 211.683 141.041 210.316C141.041 209.201 140.889 208.201 140.586 207.315C140.258 206.403 139.828 205.529 139.298 204.693L141.344 203.554C141.95 204.466 142.468 205.517 142.897 206.707C143.326 207.872 143.541 209.201 143.541 210.695Z" fill="#199C68"/>
<path d="M143.086 194.908H124.675V192.324L129.032 192.059V191.945C127.542 190.982 126.367 189.792 125.508 188.374C124.65 186.956 124.22 185.398 124.22 183.701C124.22 183.018 124.284 182.384 124.41 181.802C124.511 181.194 124.7 180.612 124.978 180.055L127.668 180.776C127.44 181.409 127.276 181.954 127.175 182.41C127.074 182.866 127.024 183.461 127.024 184.195C127.024 185.588 127.428 186.93 128.236 188.222C129.019 189.488 130.37 190.678 132.29 191.793H143.086V194.908Z" fill="#199C68"/>
<path d="M129.751 171.712L121.228 172.662L117.06 172.738V168.559L121.228 168.635L129.751 169.585V171.712ZM129.751 162.975L121.228 163.925L117.06 164.001V159.822L121.228 159.898L129.751 160.848V162.975Z" fill="#199C68"/>
<path d="M141.268 150.834H138.275L130.585 139.4H130.433L122.743 150.834H119.75L129.335 136.665H131.683L141.268 150.834Z" fill="#199C68"/>
<path d="M141.268 113.394L131.683 127.563H129.335L119.75 113.394H122.743L130.433 124.828H130.585L138.275 113.394H141.268Z" fill="#199C68"/>
<path d="M149.148 105.583L116.189 93.1232V90.3122L149.148 102.772V105.583Z" fill="#199C68"/>
<path d="M143.541 76.2718C143.541 78.6776 142.708 80.615 141.041 82.0838C139.349 83.5527 136.975 84.2871 133.919 84.2871C131.923 84.2871 130.206 83.8945 128.766 83.1095C127.302 82.2991 126.178 81.2608 125.395 79.9946C124.612 78.703 124.22 77.3354 124.22 75.8919C124.22 74.8029 124.435 73.8152 124.864 72.9289C125.269 72.0172 125.849 71.1688 126.607 70.3837V70.2698L123.198 70.4218H116.113V67.3068H143.086V69.89L140.662 70.1558V70.2698C141.445 71.0042 142.127 71.9033 142.708 72.9669C143.263 74.0052 143.541 75.1068 143.541 76.2718ZM140.927 75.626C140.927 74.7143 140.7 73.8279 140.245 72.9669C139.765 72.1058 139.071 71.2574 138.162 70.4218H128.994C128.211 71.2574 127.655 72.0805 127.327 72.8909C126.999 73.676 126.834 74.4738 126.834 75.2841C126.834 76.3478 127.137 77.3228 127.744 78.2092C128.324 79.0702 129.145 79.7666 130.206 80.2985C131.241 80.8049 132.466 81.0582 133.881 81.0582C136.078 81.0582 137.808 80.577 139.071 79.6147C140.308 78.6523 140.927 77.3228 140.927 75.626Z" fill="#199C68"/>
<path d="M143.086 51.7849H127.213V60.3699H124.675V48.6699H143.086V51.7849ZM120.811 50.5692C120.811 51.2783 120.596 51.8735 120.167 52.3546C119.712 52.8358 119.119 53.0764 118.386 53.0764C117.654 53.0764 117.073 52.8358 116.644 52.3546C116.189 51.8735 115.962 51.2783 115.962 50.5692C115.962 49.8602 116.189 49.265 116.644 48.7839C117.073 48.3027 117.654 48.0621 118.386 48.0621C119.119 48.0621 119.712 48.3027 120.167 48.7839C120.596 49.265 120.811 49.8602 120.811 50.5692Z" fill="#199C68"/>
<path d="M143.086 31.2866L124.675 39.074V35.921L135.131 31.6664C136.04 31.2866 136.949 30.9321 137.858 30.6028C138.768 30.2483 139.664 29.9064 140.548 29.5771V29.4252C139.664 29.0959 138.768 28.7668 137.858 28.4376C136.949 28.1083 136.04 27.7664 135.131 27.4119L124.675 23.1573V20.1563L143.086 27.7917V31.2866Z" fill="#199C68"/>
<path d="M141.268 14.1693H138.275L130.585 2.73505H130.433L122.743 14.1693H119.75L129.335 0H131.683L141.268 14.1693Z" fill="#199C68"/>
<path d="M198.12 682.831L188.536 697H186.187L176.602 682.831H179.595L187.286 694.265H187.437L195.127 682.831H198.12Z" fill="#199C68"/>
<path d="M206 675.02L173.041 662.56V659.749L206 672.209V675.02Z" fill="#199C68"/>
<path d="M199.939 646.811H179.974C178.484 646.811 177.183 646.545 176.072 646.013C174.935 645.456 174.064 644.633 173.458 643.544C172.827 642.455 172.511 641.062 172.511 639.365C172.511 638.453 172.599 637.567 172.776 636.706C172.928 635.82 173.193 634.933 173.572 634.047L175.92 634.769C175.567 635.528 175.34 636.237 175.239 636.896C175.112 637.529 175.049 638.251 175.049 639.061C175.049 640.707 175.478 641.898 176.337 642.632C177.196 643.366 178.37 643.734 179.86 643.734H199.939V646.811ZM184.065 652.091H181.717L181.527 646.697V635.984H184.065V652.091Z" fill="#199C68"/>
<path d="M200.393 621.83C200.393 623.451 200.014 624.957 199.257 626.35C198.499 627.718 197.4 628.832 195.961 629.693C194.521 630.529 192.791 630.947 190.771 630.947C188.7 630.947 186.945 630.529 185.505 629.693C184.065 628.832 182.967 627.718 182.209 626.35C181.451 624.957 181.073 623.451 181.073 621.83C181.073 620.209 181.451 618.715 182.209 617.347C182.967 615.954 184.065 614.84 185.505 614.004C186.945 613.143 188.7 612.713 190.771 612.713C192.791 612.713 194.521 613.143 195.961 614.004C197.4 614.84 198.499 615.954 199.257 617.347C200.014 618.715 200.393 620.209 200.393 621.83ZM197.817 621.83C197.817 620.64 197.527 619.601 196.946 618.715C196.34 617.829 195.506 617.145 194.445 616.664C193.385 616.182 192.16 615.942 190.771 615.942C189.356 615.942 188.119 616.182 187.058 616.664C185.972 617.145 185.139 617.829 184.558 618.715C183.952 619.601 183.649 620.64 183.649 621.83C183.649 623.02 183.952 624.058 184.558 624.945C185.139 625.806 185.972 626.49 187.058 626.996C188.119 627.477 189.356 627.718 190.771 627.718C192.16 627.718 193.385 627.477 194.445 626.996C195.506 626.49 196.34 625.806 196.946 624.945C197.527 624.058 197.817 623.02 197.817 621.83Z" fill="#199C68"/>
<path d="M200.393 599.052C200.393 600.673 200.014 602.18 199.257 603.573C198.499 604.94 197.4 606.055 195.961 606.916C194.521 607.751 192.791 608.169 190.771 608.169C188.7 608.169 186.945 607.751 185.505 606.916C184.065 606.055 182.967 604.94 182.209 603.573C181.451 602.18 181.073 600.673 181.073 599.052C181.073 597.432 181.451 595.937 182.209 594.57C182.967 593.177 184.065 592.063 185.505 591.227C186.945 590.366 188.7 589.935 190.771 589.935C192.791 589.935 194.521 590.366 195.961 591.227C197.4 592.063 198.499 593.177 199.257 594.57C200.014 595.937 200.393 597.432 200.393 599.052ZM197.817 599.052C197.817 597.862 197.527 596.824 196.946 595.937C196.34 595.051 195.506 594.367 194.445 593.886C193.385 593.405 192.16 593.164 190.771 593.164C189.356 593.164 188.119 593.405 187.058 593.886C185.972 594.367 185.139 595.051 184.558 595.937C183.952 596.824 183.649 597.862 183.649 599.052C183.649 600.243 183.952 601.281 184.558 602.167C185.139 603.028 185.972 603.712 187.058 604.219C188.119 604.7 189.356 604.94 190.771 604.94C192.16 604.94 193.385 604.7 194.445 604.219C195.506 603.712 196.34 603.028 196.946 602.167C197.527 601.281 197.817 600.243 197.817 599.052Z" fill="#199C68"/>
<path d="M200.393 572.704C200.393 574.502 200.078 575.92 199.446 576.959C198.789 577.997 197.893 578.744 196.756 579.2C195.62 579.63 194.294 579.846 192.779 579.846H184.065V585.05H181.717L181.527 579.732L175.617 579.314V576.731H181.527V567.652H184.065V576.731H192.817C193.902 576.731 194.824 576.591 195.582 576.313C196.34 576.034 196.908 575.553 197.287 574.869C197.666 574.186 197.855 573.249 197.855 572.058C197.855 571.172 197.779 570.374 197.628 569.665C197.476 568.956 197.274 568.272 197.022 567.614L199.295 566.93C199.598 567.766 199.85 568.652 200.052 569.589C200.28 570.501 200.393 571.539 200.393 572.704Z" fill="#199C68"/>
<path d="M200.393 552.358C200.393 554.206 200.014 555.891 199.257 557.41C198.499 558.904 197.4 560.094 195.961 560.981C194.496 561.867 192.741 562.31 190.695 562.31C188.7 562.31 186.982 561.867 185.543 560.981C184.103 560.094 183.005 558.942 182.247 557.524C181.464 556.081 181.073 554.536 181.073 552.89C181.073 551.117 181.439 549.61 182.171 548.369C182.878 547.103 183.876 546.141 185.164 545.482C186.452 544.798 187.967 544.456 189.71 544.456C190.064 544.456 190.405 544.469 190.733 544.494C191.061 544.52 191.352 544.558 191.604 544.608V560.221H189.18V546.47L190.051 547.267C187.879 547.267 186.25 547.774 185.164 548.787C184.078 549.775 183.535 551.117 183.535 552.814C183.535 553.953 183.813 555.017 184.368 556.005C184.924 556.967 185.732 557.739 186.793 558.322C187.854 558.904 189.154 559.195 190.695 559.195C192.286 559.195 193.612 558.879 194.673 558.246C195.734 557.613 196.542 556.752 197.097 555.663C197.628 554.574 197.893 553.345 197.893 551.978C197.893 550.864 197.741 549.863 197.438 548.977C197.11 548.065 196.681 547.191 196.15 546.356L198.196 545.216C198.802 546.128 199.32 547.179 199.749 548.369C200.179 549.534 200.393 550.864 200.393 552.358Z" fill="#199C68"/>
<path d="M199.939 536.57H181.527V533.987L185.884 533.721V533.607C184.394 532.645 183.219 531.454 182.361 530.036C181.502 528.618 181.073 527.06 181.073 525.364C181.073 524.68 181.136 524.047 181.262 523.464C181.363 522.857 181.552 522.274 181.83 521.717L184.52 522.439C184.293 523.072 184.129 523.616 184.028 524.072C183.927 524.528 183.876 525.123 183.876 525.858C183.876 527.25 184.28 528.593 185.088 529.884C185.871 531.15 187.222 532.341 189.142 533.455H199.939V536.57Z" fill="#199C68"/>
<path d="M198.12 515.274H195.127L187.437 503.84H187.286L179.595 515.274H176.602L186.187 501.105H188.536L198.12 515.274Z" fill="#199C68"/>
</g>
<defs>
<filter id="filter0_d_465_29751" x="0" y="0" width="210" height="705" filterUnits="userSpaceOnUse" color-interpolation-filters="sRGB">
<feFlood flood-opacity="0" result="BackgroundImageFix"/>
<feColorMatrix in="SourceAlpha" type="matrix" values="0 0 0 0 0 0 0 0 0 0 0 0 0 0 0 0 0 0 127 0" result="hardAlpha"/>
<feOffset dy="4"/>
<feGaussianBlur stdDeviation="2"/>
<feComposite in2="hardAlpha" operator="out"/>
<feColorMatrix type="matrix" values="0 0 0 0 0 0 0 0 0 0 0 0 0 0 0 0 0 0 0.25 0"/>
<feBlend mode="normal" in2="BackgroundImageFix" result="effect1_dropShadow_465_29751"/>
<feBlend mode="normal" in="SourceGraphic" in2="effect1_dropShadow_465_29751" result="shape"/>
</filter>
</defs>
</svg>
